# xmcd
#
# Track frame offsets:
#	150
#	12339
#	24939
#	38664
#	50739
#	71965
#	87116
#	101142
#	118242
#	130917
#	150643
#	165269
#
# Disc length: 2373 seconds
#
# Revision: 0
# Processed by: cddbd v1.5.1PL0 Copyright (c) Steve Scherf et al.
# Submitted via: dBpowerAMP V4.0
#
DISCID=9809430c
DTITLE=Adam Harvey - Adam Harvey
DYEAR=1900
DGENRE=
TTITLE0=Bad Luck With Women
TTITLE1=I May Never Get To Heaven
TTITLE2=It's Now Or Never
TTITLE3=Sick And tired Of You
TTITLE4=Old Dogs And Children And Watermelon Wine
TTITLE5=You Gave Me  A Mountain
TTITLE6=Tamworth Blues
TTITLE7=He'll Have To Go
TTITLE8=Tight Fittin jeans
TTITLE9=Heartbreak Side Of Town
TTITLE10=Phantom 309
TTITLE11=Cheryl Moana Marie
EXTD=
EXTT0=
EXTT1=
EXTT2=
EXTT3=
EXTT4=
EXTT5=
EXTT6=
EXTT7=
EXTT8=
EXTT9=
EXTT10=
EXTT11=
PLAYORDER=
